<svg id="visual" viewBox="0 0 900 600" width="900" height="600" xmlns="http://www.w3.org/2000/svg" xmlns:xlink="http://www.w3.org/1999/xlink" version="1.1"><rect x="0" y="0" width="900" height="600" fill="#1A1A1A"></rect><defs><linearGradient id="grad1_0" x1="33.3%" y1="0%" x2="100%" y2="100%"><stop offset="20%" stop-color="#1a1a1a" stop-opacity="1"></stop><stop offset="80%" stop-color="#1a1a1a" stop-opacity="1"></stop></linearGradient></defs><defs><linearGradient id="grad2_0" x1="0%" y1="0%" x2="66.7%" y2="100%"><stop offset="20%" stop-color="#1a1a1a" stop-opacity="1"></stop><stop offset="80%" stop-color="#1a1a1a" stop-opacity="1"></stop></linearGradient></defs><g transform="translate(900, 0)"><path d="M0 324.5C-7.9 282.3 -15.8 240.2 -29.9 246.2C-44 252.2 -64.2 306.4 -77.7 315.1C-91.1 323.7 -97.9 286.8 -94.7 249.6C-91.5 212.5 -78.2 175.1 -97.6 185.9C-117 196.8 -168.9 255.7 -168.7 244.4C-168.5 233.1 -116.2 151.5 -118.7 134C-121.2 116.5 -178.4 163.1 -181.1 160.5C-183.9 157.8 -132.1 106 -143.2 98.8C-154.3 91.7 -228.3 129.4 -262.1 137.6C-295.9 145.7 -289.5 124.5 -279.6 106C-269.7 87.6 -256.3 71.9 -238.9 58.9C-221.4 45.8 -199.8 35.3 -213.4 25.9C-227 16.5 -275.8 8.3 -324.5 0L0 0Z" fill="#FFCC00"></path></g><g transform="translate(0, 600)"><path d="M0 -324.5C6.7 -258.7 13.3 -192.8 20.9 -171.7C28.4 -150.7 36.8 -174.4 44.3 -179.6C51.7 -184.8 58.2 -171.6 61.3 -161.8C64.5 -151.9 64.3 -145.6 88.3 -168.2C112.3 -190.9 160.6 -242.5 156.8 -227.1C152.9 -211.8 97 -129.5 111.4 -125.7C125.8 -122 210.7 -196.9 242.9 -215.2C275.1 -233.5 254.5 -195.1 250.2 -172.7C245.8 -150.3 257.6 -143.8 238.2 -125C218.7 -106.2 168.1 -75.2 167.4 -63.5C166.7 -51.8 216 -59.4 227.2 -56C238.4 -52.6 211.5 -38.1 221.4 -26.9C231.2 -15.7 277.9 -7.8 324.5 0L0 0Z" fill="#FFCC00"></path></g></svg>