<svg id="visual" viewBox="0 0 900 600" width="900" height="600" xmlns="http://www.w3.org/2000/svg" xmlns:xlink="http://www.w3.org/1999/xlink" version="1.1"><rect x="0" y="0" width="900" height="600" fill="#C1CAD1"></rect><defs><linearGradient id="grad1_0" x1="33.3%" y1="100%" x2="100%" y2="0%"><stop offset="20%" stop-color="#121212" stop-opacity="1"></stop><stop offset="80%" stop-color="#121212" stop-opacity="1"></stop></linearGradient></defs><defs><linearGradient id="grad1_1" x1="33.3%" y1="100%" x2="100%" y2="0%"><stop offset="20%" stop-color="#121212" stop-opacity="1"></stop><stop offset="80%" stop-color="#272829" stop-opacity="1"></stop></linearGradient></defs><defs><linearGradient id="grad1_2" x1="33.3%" y1="100%" x2="100%" y2="0%"><stop offset="20%" stop-color="#3e4042" stop-opacity="1"></stop><stop offset="80%" stop-color="#272829" stop-opacity="1"></stop></linearGradient></defs><defs><linearGradient id="grad1_3" x1="33.3%" y1="100%" x2="100%" y2="0%"><stop offset="20%" stop-color="#3e4042" stop-opacity="1"></stop><stop offset="80%" stop-color="#56595c" stop-opacity="1"></stop></linearGradient></defs><defs><linearGradient id="grad1_4" x1="33.3%" y1="100%" x2="100%" y2="0%"><stop offset="20%" stop-color="#6f7478" stop-opacity="1"></stop><stop offset="80%" stop-color="#56595c" stop-opacity="1"></stop></linearGradient></defs><defs><linearGradient id="grad1_5" x1="33.3%" y1="100%" x2="100%" y2="0%"><stop offset="20%" stop-color="#6f7478" stop-opacity="1"></stop><stop offset="80%" stop-color="#8a9094" stop-opacity="1"></stop></linearGradient></defs><defs><linearGradient id="grad1_6" x1="33.3%" y1="100%" x2="100%" y2="0%"><stop offset="20%" stop-color="#a5acb2" stop-opacity="1"></stop><stop offset="80%" stop-color="#8a9094" stop-opacity="1"></stop></linearGradient></defs><defs><linearGradient id="grad1_7" x1="33.3%" y1="100%" x2="100%" y2="0%"><stop offset="20%" stop-color="#a5acb2" stop-opacity="1"></stop><stop offset="80%" stop-color="#c1cad1" stop-opacity="1"></stop></linearGradient></defs><defs><linearGradient id="grad2_0" x1="0%" y1="100%" x2="66.7%" y2="0%"><stop offset="20%" stop-color="#121212" stop-opacity="1"></stop><stop offset="80%" stop-color="#121212" stop-opacity="1"></stop></linearGradient></defs><defs><linearGradient id="grad2_1" x1="0%" y1="100%" x2="66.7%" y2="0%"><stop offset="20%" stop-color="#272829" stop-opacity="1"></stop><stop offset="80%" stop-color="#121212" stop-opacity="1"></stop></linearGradient></defs><defs><linearGradient id="grad2_2" x1="0%" y1="100%" x2="66.7%" y2="0%"><stop offset="20%" stop-color="#272829" stop-opacity="1"></stop><stop offset="80%" stop-color="#3e4042" stop-opacity="1"></stop></linearGradient></defs><defs><linearGradient id="grad2_3" x1="0%" y1="100%" x2="66.7%" y2="0%"><stop offset="20%" stop-color="#56595c" stop-opacity="1"></stop><stop offset="80%" stop-color="#3e4042" stop-opacity="1"></stop></linearGradient></defs><defs><linearGradient id="grad2_4" x1="0%" y1="100%" x2="66.7%" y2="0%"><stop offset="20%" stop-color="#56595c" stop-opacity="1"></stop><stop offset="80%" stop-color="#6f7478" stop-opacity="1"></stop></linearGradient></defs><defs><linearGradient id="grad2_5" x1="0%" y1="100%" x2="66.7%" y2="0%"><stop offset="20%" stop-color="#8a9094" stop-opacity="1"></stop><stop offset="80%" stop-color="#6f7478" stop-opacity="1"></stop></linearGradient></defs><defs><linearGradient id="grad2_6" x1="0%" y1="100%" x2="66.7%" y2="0%"><stop offset="20%" stop-color="#8a9094" stop-opacity="1"></stop><stop offset="80%" stop-color="#a5acb2" stop-opacity="1"></stop></linearGradient></defs><defs><linearGradient id="grad2_7" x1="0%" y1="100%" x2="66.7%" y2="0%"><stop offset="20%" stop-color="#c1cad1" stop-opacity="1"></stop><stop offset="80%" stop-color="#a5acb2" stop-opacity="1"></stop></linearGradient></defs><g transform="translate(900, 600)"><path d="M-297.5 0C-289.1 -14.5 -280.8 -29 -276.6 -43.8C-272.3 -58.6 -272.2 -73.6 -266.3 -86.5C-260.3 -99.4 -248.5 -110.3 -241.5 -123C-234.4 -135.8 -232.1 -150.5 -227.3 -165.2C-222.6 -179.8 -215.4 -194.5 -204.4 -204.4C-193.3 -214.2 -178.4 -219.4 -166.9 -229.8C-155.5 -240.2 -147.4 -255.8 -135 -265C-122.7 -274.2 -105.9 -276.9 -89.9 -276.8C-73.9 -276.6 -58.7 -273.6 -43.8 -276.6C-28.9 -279.5 -14.5 -288.5 0 -297.5L0 0Z" fill="#b3bbc1"></path><path d="M-260.3 0C-253 -12.7 -245.7 -25.4 -242 -38.3C-238.3 -51.3 -238.2 -64.4 -233 -75.7C-227.8 -87 -217.5 -96.5 -211.3 -107.7C-205.1 -118.8 -203.1 -131.7 -198.9 -144.5C-194.8 -157.4 -188.5 -170.2 -178.8 -178.8C-169.1 -187.5 -156.1 -191.9 -146.1 -201C-136 -210.1 -129 -223.9 -118.2 -231.9C-107.3 -239.9 -92.7 -242.3 -78.7 -242.2C-64.7 -242 -51.3 -239.4 -38.3 -242C-25.3 -244.6 -12.7 -252.4 0 -260.3L0 0Z" fill="#979ea3"></path><path d="M-223.1 0C-216.8 -10.9 -210.6 -21.8 -207.4 -32.9C-204.3 -43.9 -204.2 -55.2 -199.7 -64.9C-195.3 -74.6 -186.4 -82.7 -181.1 -92.3C-175.8 -101.8 -174.1 -112.9 -170.5 -123.9C-166.9 -134.9 -161.5 -145.9 -153.3 -153.3C-145 -160.7 -133.8 -164.5 -125.2 -172.3C-116.6 -180.1 -110.6 -191.9 -101.3 -198.8C-92 -205.7 -79.4 -207.7 -67.4 -207.6C-55.4 -207.4 -44 -205.2 -32.9 -207.4C-21.7 -209.6 -10.9 -216.4 0 -223.1L0 0Z" fill="#7c8286"></path><path d="M-185.9 0C-180.7 -9.1 -175.5 -18.1 -172.8 -27.4C-170.2 -36.6 -170.2 -46 -166.4 -54.1C-162.7 -62.2 -155.3 -68.9 -150.9 -76.9C-146.5 -84.9 -145.1 -94.1 -142.1 -103.2C-139.1 -112.4 -134.6 -121.5 -127.7 -127.7C-120.8 -133.9 -111.5 -137.1 -104.3 -143.6C-97.2 -150.1 -92.1 -159.9 -84.4 -165.6C-76.7 -171.4 -66.2 -173.1 -56.2 -173C-46.2 -172.9 -36.7 -171 -27.4 -172.8C-18.1 -174.7 -9 -180.3 0 -185.9L0 0Z" fill="#63666a"></path><path d="M-148.7 0C-144.6 -7.3 -140.4 -14.5 -138.3 -21.9C-136.2 -29.3 -136.1 -36.8 -133.1 -43.3C-130.2 -49.7 -124.3 -55.1 -120.7 -61.5C-117.2 -67.9 -116 -75.2 -113.7 -82.6C-111.3 -89.9 -107.7 -97.2 -102.2 -102.2C-96.7 -107.1 -89.2 -109.7 -83.5 -114.9C-77.7 -120.1 -73.7 -127.9 -67.5 -132.5C-61.3 -137.1 -53 -138.5 -45 -138.4C-37 -138.3 -29.3 -136.8 -21.9 -138.3C-14.5 -139.8 -7.2 -144.2 0 -148.7L0 0Z" fill="#4a4d4f"></path><path d="M-111.5 0C-108.4 -5.4 -105.3 -10.9 -103.7 -16.4C-102.1 -22 -102.1 -27.6 -99.9 -32.4C-97.6 -37.3 -93.2 -41.4 -90.5 -46.1C-87.9 -50.9 -87 -56.4 -85.3 -61.9C-83.5 -67.4 -80.8 -72.9 -76.6 -76.6C-72.5 -80.3 -66.9 -82.3 -62.6 -86.2C-58.3 -90.1 -55.3 -95.9 -50.6 -99.4C-46 -102.8 -39.7 -103.8 -33.7 -103.8C-27.7 -103.7 -22 -102.6 -16.4 -103.7C-10.9 -104.8 -5.4 -108.2 0 -111.5L0 0Z" fill="#333435"></path><path d="M-74.4 0C-72.3 -3.6 -70.2 -7.3 -69.1 -11C-68.1 -14.6 -68.1 -18.4 -66.6 -21.6C-65.1 -24.9 -62.1 -27.6 -60.4 -30.8C-58.6 -33.9 -58 -37.6 -56.8 -41.3C-55.6 -45 -53.8 -48.6 -51.1 -51.1C-48.3 -53.6 -44.6 -54.8 -41.7 -57.4C-38.9 -60 -36.9 -64 -33.8 -66.3C-30.7 -68.6 -26.5 -69.2 -22.5 -69.2C-18.5 -69.1 -14.7 -68.4 -11 -69.1C-7.2 -69.9 -3.6 -72.1 0 -74.4L0 0Z" fill="#1d1d1e"></path><path d="M-37.2 0C-36.1 -1.8 -35.1 -3.6 -34.6 -5.5C-34 -7.3 -34 -9.2 -33.3 -10.8C-32.5 -12.4 -31.1 -13.8 -30.2 -15.4C-29.3 -17 -29 -18.8 -28.4 -20.6C-27.8 -22.5 -26.9 -24.3 -25.5 -25.5C-24.2 -26.8 -22.3 -27.4 -20.9 -28.7C-19.4 -30 -18.4 -32 -16.9 -33.1C-15.3 -34.3 -13.2 -34.6 -11.2 -34.6C-9.2 -34.6 -7.3 -34.2 -5.5 -34.6C-3.6 -34.9 -1.8 -36.1 0 -37.2L0 0Z" fill="#121212"></path></g><g transform="translate(0, 0)"><path d="M297.5 0C294.7 15.5 292 31 286.4 45.4C280.8 59.7 272.3 72.8 267.2 86.8C262.1 100.8 260.4 115.7 257.5 131.2C254.6 146.7 250.4 162.8 240.6 174.8C230.9 186.9 215.4 194.8 200.1 200.1C184.8 205.4 169.6 208 158.7 218.4C147.8 228.8 141.1 246.9 128.5 252.2C115.9 257.4 97.3 249.6 83.1 255.8C69 262 59.3 282.1 46.1 291.4C33 300.6 16.5 299 0 297.5L0 0Z" fill="#b3bbc1"></path><path d="M260.3 0C257.9 13.6 255.5 27.2 250.6 39.7C245.7 52.2 238.3 63.7 233.8 76C229.4 88.2 227.9 101.2 225.3 114.8C222.8 128.4 219.1 142.5 210.6 153C202 163.5 188.5 170.5 175.1 175.1C161.7 179.7 148.4 182 138.9 191.1C129.3 200.2 123.5 216.1 112.4 220.6C101.4 225.2 85.1 218.4 72.7 223.9C60.4 229.3 51.9 246.8 40.4 254.9C28.9 263 14.5 261.7 0 260.3L0 0Z" fill="#979ea3"></path><path d="M223.1 0C221.1 11.6 219 23.3 214.8 34C210.6 44.8 204.3 54.6 200.4 65.1C196.6 75.6 195.3 86.8 193.1 98.4C190.9 110 187.8 122.1 180.5 131.1C173.1 140.2 161.6 146.1 150.1 150.1C138.6 154.1 127.2 156 119 163.8C110.8 171.6 105.8 185.2 96.4 189.1C86.9 193 73 187.2 62.3 191.9C51.7 196.5 44.4 211.6 34.6 218.5C24.8 225.5 12.4 224.3 0 223.1L0 0Z" fill="#7c8286"></path><path d="M185.9 0C184.2 9.7 182.5 19.4 179 28.4C175.5 37.3 170.2 45.5 167 54.3C163.8 63 162.8 72.3 160.9 82C159.1 91.7 156.5 101.8 150.4 109.3C144.3 116.8 134.6 121.8 125.1 125.1C115.5 128.4 106 130 99.2 136.5C92.4 143 88.2 154.3 80.3 157.6C72.4 160.9 60.8 156 52 159.9C43.1 163.8 37 176.3 28.8 182.1C20.6 187.9 10.3 186.9 0 185.9L0 0Z" fill="#63666a"></path><path d="M148.7 0C147.4 7.8 146 15.5 143.2 22.7C140.4 29.8 136.2 36.4 133.6 43.4C131.1 50.4 130.2 57.9 128.8 65.6C127.3 73.3 125.2 81.4 120.3 87.4C115.4 93.4 107.7 97.4 100.1 100.1C92.4 102.7 84.8 104 79.4 109.2C73.9 114.4 70.6 123.5 64.2 126.1C57.9 128.7 48.6 124.8 41.6 127.9C34.5 131 29.6 141.1 23.1 145.7C16.5 150.3 8.3 149.5 0 148.7L0 0Z" fill="#4a4d4f"></path><path d="M111.5 0C110.5 5.8 109.5 11.6 107.4 17C105.3 22.4 102.1 27.3 100.2 32.6C98.3 37.8 97.7 43.4 96.6 49.2C95.5 55 93.9 61.1 90.2 65.6C86.6 70.1 80.8 73.1 75 75C69.3 77 63.6 78 59.5 81.9C55.4 85.8 52.9 92.6 48.2 94.6C43.4 96.5 36.5 93.6 31.2 95.9C25.9 98.3 22.2 105.8 17.3 109.3C12.4 112.7 6.2 112.1 0 111.5L0 0Z" fill="#333435"></path><path d="M74.4 0C73.7 3.9 73 7.8 71.6 11.3C70.2 14.9 68.1 18.2 66.8 21.7C65.5 25.2 65.1 28.9 64.4 32.8C63.6 36.7 62.6 40.7 60.2 43.7C57.7 46.7 53.9 48.7 50 50C46.2 51.4 42.4 52 39.7 54.6C36.9 57.2 35.3 61.7 32.1 63C29 64.3 24.3 62.4 20.8 64C17.2 65.5 14.8 70.5 11.5 72.8C8.3 75.2 4.1 74.8 0 74.4L0 0Z" fill="#1d1d1e"></path><path d="M37.2 0C36.8 1.9 36.5 3.9 35.8 5.7C35.1 7.5 34 9.1 33.4 10.9C32.8 12.6 32.6 14.5 32.2 16.4C31.8 18.3 31.3 20.4 30.1 21.9C28.9 23.4 26.9 24.4 25 25C23.1 25.7 21.2 26 19.8 27.3C18.5 28.6 17.6 30.9 16.1 31.5C14.5 32.2 12.2 31.2 10.4 32C8.6 32.8 7.4 35.3 5.8 36.4C4.1 37.6 2.1 37.4 0 37.2L0 0Z" fill="#121212"></path></g></svg>